<svg xmlns="http://www.w3.org/2000/svg" width="256" height="256"><path fill-opacity=".016" d="M0 128.004v128.004l128.25-.254 128.25-.254.254-127.75L257.008 0H0v128.004m.485.496c0 70.4.119 99.053.265 63.672.146-35.38.146-92.98 0-128C.604 29.153.485 58.1.485 128.5" fill="#1976D2" fill-rule="evenodd"/><path fill-opacity=".103" d="M11.018 126.75c-5.625 12.512-10.454 23.313-10.73 24-.362.9.897 1.25 4.498 1.25h5l4.579-10.455c2.518-5.751 6.004-13.851 7.745-18 1.742-4.15 3.442-7.537 3.779-7.527.336.01 4.037 7.998 8.224 17.75l7.613 17.732 5.239.306c2.881.168 5.08-.096 4.887-.587-.194-.49-5.044-11.316-10.778-24.056L30.648 104h-9.402l-10.228 22.75M46 104.937c0 .575 4.459 11.287 9.909 23.805l9.91 22.758h9.551L85.548 128l10.179-23.5-4.503-.31c-2.477-.171-4.836.054-5.243.5-.408.445-4.036 8.636-8.064 18.202-4.027 9.565-7.476 16.99-7.663 16.5-.187-.491-3.595-8.542-7.572-17.892l-7.231-17-4.726-.305c-2.817-.182-4.725.118-4.725.742m63.074 1.313c-.482 1.237-5.196 11.871-10.475 23.63C93.32 141.639 89 151.427 89 151.63c0 .204 2.25.37 5 .37s5-.113 5.001-.25c0-.137 3.551-8.463 7.89-18.501l7.89-18.251 4.043 9.251a3864.887 3864.887 0 0 1 7.91 18.251l3.866 9 5.187.302c4.721.274 5.121.133 4.45-1.569-.405-1.029-5.237-11.85-10.737-24.047l-10-22.176-4.775-.005c-4.027-.004-4.912.347-5.651 2.245M148 128v24h8.949l.276-15.75.275-15.75 12.898 15.75c12.591 15.376 12.989 15.75 16.75 15.75H191v-48.11l-4.75.305-4.75.305-.5 14.895-.5 14.896-12.352-15.146C156.058 104.321 155.713 104 151.898 104H148v24m50.394-22.584c-.299.778-.397 2.691-.219 4.25l.325 2.834h15.503l-.001 19.805L214 152.11l4.75-.305 4.75-.305.271-19.207.272-19.206 7.228-.294 7.229-.293.307-4.25.308-4.25h-20.089c-16.401 0-20.188.26-20.632 1.416m48.055-.143c-.269.7-.367 11.387-.219 23.75l.27 22.477 4.75.305 4.75.305V104h-4.531c-2.746 0-4.724.502-5.02 1.273" fill="#1976D2" fill-rule="evenodd"/><path fill-opacity=".316" d="M20.162 107.695C16.777 114.352 1 150.04 1 151.04c0 1.42 7.598 1.167 8.705-.29.523-.687 4.287-9.012 8.365-18.5 4.079-9.487 7.644-17.241 7.923-17.23.279.011 3.873 7.917 7.987 17.568 4.113 9.652 7.938 17.884 8.5 18.294 1.93 1.411 8.525 1.368 8.45-.055-.038-.73-4.671-11.452-10.296-23.827l-10.227-22.5-4.155-.305c-3.92-.288-4.264-.09-6.09 3.5M46 104.499c0 1.068 19.211 44.95 20.248 46.251.548.688 2.679 1.25 4.735 1.25h3.738l10.139-23.276c5.577-12.802 10.14-23.602 10.14-24 0-.398-1.965-.724-4.366-.724h-4.366l-7.836 18.63c-6.022 14.317-8.026 18.195-8.655 16.75-.45-1.034-3.916-9.305-7.701-18.38l-6.883-16.5-4.596-.305c-2.528-.167-4.597-.031-4.597.304m64.335.701C108.966 106.995 90 149.673 90 150.96c0 .572 1.792 1.04 3.983 1.04 4.648 0 4.686-.062 14.502-23.216 3.198-7.544 6.115-13.531 6.482-13.305.366.227 4.183 8.537 8.482 18.467L131.265 152h4.367c2.403 0 4.368-.371 4.368-.824 0-.452-4.654-11.14-10.343-23.75L119.314 104.5l-3.993-.3c-2.421-.181-4.385.213-4.986 1m37.897 22.55.268 23.75h8l.5-15.795.5-15.794 11.961 14.684c14.878 18.265 14.159 17.574 17.914 17.209l3.125-.304v-47l-4.225-.306-4.225-.307-.275 16.027-.275 16.027-13-15.961c-12.606-15.479-13.114-15.962-16.768-15.971l-3.768-.009.268 23.75M199 107.979V112h14.958l.271 19.75.271 19.75 4.25.307 4.25.308V112H239.121l-.311-3.75-.31-3.75-19.75-.271-19.75-.271v4.021M247 128v24.115l4.25-.308 4.25-.307v-47l-4.25-.307-4.25-.308V128" fill="#1976D2" fill-rule="evenodd"/><path fill-opacity=".422" d="M13.587 122.734c-4.353 9.771-8.96 20.129-10.238 23.016L1.025 151h8.502l7.933-18.5c4.363-10.175 8.182-18.49 8.486-18.477.305.012 4.108 8.337 8.451 18.5L42.294 151h8.592l-4.341-9.75c-2.388-5.363-7.002-15.6-10.254-22.75l-5.912-13-4.439-.266-4.44-.266-7.913 17.766M47 105.651c0 .421 4.36 10.797 9.69 23.058L66.38 151h8.383l3.553-8.25a4022.008 4022.008 0 0 1 10.048-23L94.86 105H86.3l-7.473 17.75c-4.111 9.762-7.823 17.75-8.25 17.75-.426 0-4.058-7.875-8.071-17.5l-7.296-17.5-4.105-.307c-2.258-.17-4.105.037-4.105.458m54 20.493c-5.225 11.672-9.823 22.04-10.218 23.039-.625 1.584-.176 1.815 3.5 1.801l4.218-.016 7.93-18.484c4.362-10.166 8.187-18.469 8.5-18.45.314.019 3.87 7.815 7.904 17.326 4.033 9.511 7.678 17.85 8.099 18.531.46.745 2.344 1.113 4.726.924l3.961-.315-10.151-22.5-10.151-22.5-4.409-.289-4.409-.289-9.5 21.222M148 128v23h8v-16c0-8.8.338-15.974.75-15.942.412.031 6.547 7.231 13.633 16C182.409 149.941 183.489 151 186.633 151H190v-46h-7.949l-.276 15.729-.275 15.73-12.862-15.73C156.042 105.327 155.695 105 151.888 105H148v23m51-19.5v3.5h16v39h8v-39h15v-7h-39v3.5m48 19.5v23h8v-46h-8v23" fill="#1976D2" fill-rule="evenodd"/></svg>